<?xml version="1.0" encoding="UTF-8"?>
<!-- sample rectangle -->
<svg xmlns="http://www.w3.org/2000/svg" width="45" height="45" viewBox="0 0 45 45" fill="none">
  <path d="M45 22.5C45 34.9264 34.9264 45 22.5 45C10.0736 45 0 34.9264 0 22.5C0 10.0736 10.0736 0 22.5 0C34.9264 0 45 10.0736 45 22.5Z" fill="#353535"></path>
  <path d="M31.6724 35.3564C30.3394 35.3564 29.1756 35.1343 28.1812 34.6899C27.2078 34.2244 26.4038 33.6108 25.769 32.8491C25.1343 32.0874 24.6582 31.1987 24.3408 30.1831C24.0234 29.1675 23.8647 28.0884 23.8647 26.9458C23.8647 24.6606 24.2033 22.5977 24.8804 20.7568C25.5786 18.8949 26.4779 17.255 27.5781 15.8374C28.6784 14.3986 29.895 13.1714 31.228 12.1558C32.5822 11.119 33.9152 10.2938 35.2271 9.68018L36.1475 10.918C34.2855 12.6742 32.8044 14.2399 31.7041 15.6152C30.6038 16.9694 30.0537 18.1014 30.0537 19.0112C30.0537 19.5614 30.2865 20.0057 30.752 20.3442C31.2174 20.6828 31.7887 20.9896 32.4658 21.2646C33.1217 21.5186 33.8094 21.8042 34.5288 22.1216C35.2482 22.439 35.9041 22.8621 36.4966 23.3911C37.1102 23.8989 37.6074 24.5443 37.9883 25.3271C38.3903 26.11 38.5913 27.1045 38.5913 28.3105C38.5913 29.0299 38.4432 29.8022 38.147 30.6274C37.8719 31.4526 37.4382 32.2144 36.8457 32.9126C36.2744 33.6108 35.555 34.1927 34.6875 34.6582C33.82 35.1237 32.8149 35.3564 31.6724 35.3564ZM14.2163 35.3564C12.8833 35.3564 11.7196 35.1343 10.7251 34.6899C9.75179 34.2244 8.94775 33.6108 8.31299 32.8491C7.67822 32.0874 7.20215 31.1987 6.88477 30.1831C6.56738 29.1675 6.40869 28.0884 6.40869 26.9458C6.40869 24.6606 6.74723 22.5977 7.42432 20.7568C8.12256 18.8949 9.02181 17.255 10.1221 15.8374C11.2223 14.3986 12.439 13.1714 13.772 12.1558C15.1261 11.119 16.4591 10.2938 17.771 9.68018L18.6914 10.918C16.8294 12.6742 15.3483 14.2399 14.248 15.6152C13.1478 16.9694 12.5977 18.1014 12.5977 19.0112C12.5977 19.5614 12.8304 20.0057 13.2959 20.3442C13.7614 20.6828 14.3327 20.9896 15.0098 21.2646C15.6657 21.5186 16.3534 21.8042 17.0728 22.1216C17.7922 22.439 18.4481 22.8621 19.0405 23.3911C19.6541 23.8989 20.1514 24.5443 20.5322 25.3271C20.9342 26.11 21.1353 27.1045 21.1353 28.3105C21.1353 29.0299 20.9871 29.8022 20.6909 30.6274C20.4159 31.4526 19.9821 32.2144 19.3896 32.9126C18.8184 33.6108 18.099 34.1927 17.2314 34.6582C16.3639 35.1237 15.3589 35.3564 14.2163 35.3564Z" fill="white"></path>
</svg>
